<?xml version="1.0" standalone="no"?>
<!DOCTYPE svg PUBLIC "-//W3C//DTD SVG 1.1//EN" "http://www.w3.org/Graphics/SVG/1.1/DTD/svg11.dtd" >
<svg xmlns="http://www.w3.org/2000/svg">
<metadata>Generated by IcoMoon</metadata>
<defs>
<font id="icomoon" horiz-adv-x="1024">
<font-face units-per-em="1024" ascent="960" descent="-64" />
<missing-glyph horiz-adv-x="1024" />
<glyph unicode="&#x20;" d="" horiz-adv-x="512" />
<glyph unicode="&#xe600;" d="M853 320q-50 0-104 8.5t-107 26-89 50.5-40 75h-2q-4-42-40-75t-89-50.5-107-26-104-8.5q-26 0-46 1.5t-44.5 7-41 15.5-28 28.5-11.5 43.5q0 96 96 96 20 0 28.5-16t0-32-28.5-16q-4-1-9-2.5t-14-10-9-19.5q0-32 96-32 36 0 66 17t30 47q0 58 36.5 93t91.5 35q43 0 77-18.5t46-45.5h10q12 27 46 45.5t77 18.5q55 0 91.5-35t36.5-93q0-30 30-47t66-17q96 0 96 32 0 11-8 19t-16 11l-8 2q-20 0-28.5 16t0 32 28.5 16q96 0 96-96 0-25-11.5-43.5t-28-28.5-41-15.5-44.5-7-46-1.5z" />
<glyph unicode="&#xe601;" d="M512 64q-66 0-134 16-34-40-69.5-69.5t-60-43.5-47.5-21.5-30.5-8.5-10.5-1q26 57 30 124.5t-13 113.5q-83 63-130 151t-47 187q0 91 40.5 174t109 143 163.5 95.5 199 35.5 199-35.5 163.5-95.5 109-143 40.5-174-40.5-174-109-143-163.5-95.5-199-35.5zM448 672q0 13-9.5 22.5t-22.5 9.5h-64q-13 0-22.5-9.5t-9.5-22.5v-64q0-13 9.5-22.5t22.5-9.5h64q13 0 22.5 9.5t9.5 22.5v64zM448 416q0 13-9.5 22.5t-22.5 9.5h-64q-13 0-22.5-9.5t-9.5-22.5v-64q0-13 9.5-22.5t22.5-9.5h64q13 0 22.5 9.5t9.5 22.5v64zM640 768h-64q23-23 37-49t19.5-63.5 6.5-63.5 1-80-1-80-6.5-63.5-19.5-63.5-37-49h64q26 26 39 39.5t33 40.5 30 49.5 18 56 8 70.5-8 70.5-18 56-30 49-33 40.5-39 40z" />
<glyph unicode="&#xe602;" d="M896 448v-352q0-13-9.5-22.5t-22.5-9.5h-64l-144 144-272-272-384 1024 1024-384zM832 448l-704 384 704-704v320z" />
<glyph unicode="&#xe603;" d="M896-64h-768q-53 0-90.5 37.5t-37.5 90.5v640q0 53 37.5 90.5t90.5 37.5h64l64 96q18 32 128 32h256q110 0 128-32l64-96h64q53 0 90.5-37.5t37.5-90.5v-640q0-53-37.5-90.5t-90.5-37.5zM320 896l-64-96 96-96 96 128zM401 659q-25-19-49-19-32 0-64 32l-64 64q-13 13-22 32h-74q-26 0-45-18.5t-19-45.5v-640q0-27 18.5-45.5t45.5-18.5h192l129 617zM704 896l-128-64 96-128 96 96zM960 704q0 27-19 45.5t-45 18.5h-75q-8-19-21-32l-64-64q-32-32-64-32-24 0-49 19l-49-43 130-616h192q26 0 45 18.5t19 45.5v640z" />
<glyph unicode="&#xe604;" d="M1005-45q-19-19-45.5-19t-45.5 19l-198 198q-120-89-268-89-91 0-174 35.5t-143 95.5-95.5 143-35.5 174 35.5 174 95.5 143 143 95.5 174 35.5 174-35.5 143-95.5 95.5-143 35.5-174q0-148-89-268l198-198q19-19 19-45.5t-19-45.5zM448 832q-87 0-160.5-43t-116.5-116.5-43-160.5q0-121 81-212 56 33 143 46v31q-96 58-96 240 0 74 54 112.5t138.5 38.5 138-38.5 53.5-112.5q0-190-96-243v-28q87-12 144-46 80 91 80 212 0 87-43 160.5t-116.5 116.5-160.5 43z" />
<glyph unicode="&#xe605;" d="M1016-15l-41-41q-9-8-21-8t-20 8l-151 151q-53-31-111-31-93 0-158.5 65.5t-65.5 158.5q0 65 35 119.5t93 81.5v86h-32q-13 0-22.5 9.5t-9.5 22.5 9.5 22.5 22.5 9.5h64q13 0 22.5-9.5t9.5-22.5v-99q23 3 32 3 91 0 157-64h3v128h-32q-13 0-22.5 9.5t-9.5 22.5 9.5 22.5 22.5 9.5h64q13 0 22.5-9.5t9.5-22.5v-160h32q13 0 22.5-9.5t9.5-22.5-9.5-22.5-22.5-9.5h-54q22-47 22-95 0-59-31-112l151-150q8-9 8-20.5t-8-20.5zM672 447q-66 0-113-46.5t-47-113 47-113 113-46.5 113 46.5 47 113-47 113-113 46.5zM928 703h-128q-13 0-22.5 9.5t-9.5 22.5v192q0 13 9.5 22.5t22.5 9.5h128q13 0 22.5-9.5t9.5-22.5v-192q0-13-9.5-22.5t-22.5-9.5zM896 863q0 13-9.5 22.5t-22.5 9.5-22.5-9.5-9.5-22.5v-64q0-13 9.5-22.5t22.5-9.5 22.5 9.5 9.5 22.5v64zM672 703h-128q-13 0-22.5 9.5t-9.5 22.5 9.5 22.5 22.5 9.5h32v128h-32q-13 0-22.5 9.5t-9.5 22.5 9.5 22.5 22.5 9.5h64q13 0 22.5-9.5t9.5-22.5v-160h32q13 0 22.5-9.5t9.5-22.5-9.5-22.5-22.5-9.5zM416 383h-128q-13 0-22.5 9.5t-9.5 22.5v192q0 13 9.5 22.5t22.5 9.5h128q13 0 22.5-9.5t9.5-22.5v-192q0-13-9.5-22.5t-22.5-9.5zM384 543q0 13-9.5 22.5t-22.5 9.5-22.5-9.5-9.5-22.5v-64q0-13 9.5-22.5t22.5-9.5 22.5 9.5 9.5 22.5v64zM416 703h-128q-13 0-22.5 9.5t-9.5 22.5 9.5 22.5 22.5 9.5h32v128h-32q-13 0-22.5 9.5t-9.5 22.5 9.5 22.5 22.5 9.5h64q13 0 22.5-9.5t9.5-22.5v-160h32q13 0 22.5-9.5t9.5-22.5-9.5-22.5-22.5-9.5zM160 63h-128q-13 0-22.5 9.5t-9.5 22.5v192q0 13 9.5 22.5t22.5 9.5h128q13 0 22.5-9.5t9.5-22.5v-192q0-13-9.5-22.5t-22.5-9.5zM128 223q0 13-9.5 22.5t-22.5 9.5-22.5-9.5-9.5-22.5v-64q0-13 9.5-22.5t22.5-9.5 22.5 9.5 9.5 22.5v64zM160 383h-128q-13 0-22.5 9.5t-9.5 22.5 9.5 22.5 22.5 9.5h32v128h-32q-13 0-22.5 9.5t-9.5 22.5 9.5 22.5 22.5 9.5h64q13 0 22.5-9.5t9.5-22.5v-160h32q13 0 22.5-9.5t9.5-22.5-9.5-22.5-22.5-9.5zM160 703h-128q-13 0-22.5 9.5t-9.5 22.5v192q0 13 9.5 22.5t22.5 9.5h128q13 0 22.5-9.5t9.5-22.5v-192q0-13-9.5-22.5t-22.5-9.5zM128 863q0 13-9.5 22.5t-22.5 9.5-22.5-9.5-9.5-22.5v-64q0-13 9.5-22.5t22.5-9.5 22.5 9.5 9.5 22.5v64zM288 255q-13 0-22.5 9.5t-9.5 22.5 9.5 22.5 22.5 9.5h64q13 0 22.5-9.5t9.5-22.5v-160h32q13 0 22.5-9.5t9.5-22.5-9.5-22.5-22.5-9.5h-128q-13 0-22.5 9.5t-9.5 22.5 9.5 22.5 22.5 9.5h32v128h-32z" />
<glyph unicode="&#xe606;" d="M704 576v-20-23q0-15-5-34l-59-243q-7-25-24.5-44.5t-39.5-19.5v-224q0-13-9.5-22.5t-22.5-9.5h-128q-13 0-22.5 9.5t-9.5 22.5v224q-22 0-39.5 19.5t-24.5 44.5l-59 243q-5 19-5 35v21.5 20.5q0 24 55 42t137 21v4q-55 11-91.5 55t-36.5 102q0 66 47 113t113 47 113-47 47-113q0-58-36.5-102t-91.5-55v-4q82-3 137-21t55-42z" />
<glyph unicode="&#xe607;" d="M992 96h-192q-13 0-22.5 9.5t-9.5 22.5 9.5 22.5 22.5 9.5h192q13 0 22.5-9.5t9.5-22.5-9.5-22.5-22.5-9.5zM736 224h-32v-32q0-12-7.5-20.5t-18.5-10.5q-2-1-6-1h-32v-96q0-13-9.5-22.5t-22.5-9.5h-64q-13 0-22.5 9.5t-9.5 22.5v96h-32q-4 0-6 1-11 2-18.5 10.5t-7.5 20.5v32h-32q-13 0-22.5 9.5t-9.5 22.5v64q0 13 9.5 22.5t22.5 9.5h64q13 0 22.5-9.5t9.5-22.5v-64-32h128v192h-160q-4 0-6 1-11 2-18.5 10.5t-7.5 20.5v32h-32q-13 0-22.5 9.5t-9.5 22.5v128q0 13 9.5 22.5t22.5 9.5h32v32q0 12 7.5 20.5t18.5 10.5q2 1 6 1h32v96q0 13 9.5 22.5t22.5 9.5h64q13 0 22.5-9.5t9.5-22.5v-96h32q4 0 6-1 11-2 18.5-10.5t7.5-20.5v-32h32q13 0 22.5-9.5t9.5-22.5v-64q0-13-9.5-22.5t-22.5-9.5h-64q-13 0-22.5 9.5t-9.5 22.5v64 32h-128v-192h160q4 0 6-1 11-2 18.5-10.5t7.5-20.5v-32h32q13 0 22.5-9.5t9.5-22.5v-128q0-13-9.5-22.5t-22.5-9.5zM288 352h-32v-32q0-12-7.5-20.5t-18.5-10.5q-2-1-6-1h-32v-32q0-12-7.5-20.5t-18.5-10.5q-2-1-6-1h-32v-32q0-11-7.5-20t-18.5-11q-2-1-6-1h-64q-13 0-22.5 9.5t-9.5 22.5 9.5 22.5 22.5 9.5h32v32q0 12 7.5 20.5t18.5 10.5q2 1 6 1h32v32q0 12 7.5 20.5t18.5 10.5q2 1 6 1h32v64h-32q-4 0-6 1-11 2-18.5 10.5t-7.5 20.5v32h-32q-4 0-6 1-11 2-18.5 10.5t-7.5 20.5v32h-32q-13 0-22.5 9.5t-9.5 22.5 9.5 22.5 22.5 9.5h64q4 0 6-1 11-2 18.5-10.5t7.5-20.5v-32h32q4 0 6-1 11-2 18.5-10.5t7.5-20.5v-32h32q4 0 6-1 11-2 18.5-10.5t7.5-20.5v-32h32q13 0 22.5-9.5t9.5-22.5-9.5-22.5-22.5-9.5z" />
<glyph unicode="&#xe608;" d="M1006 406l-198-260q-18-17-43.5-17t-43.5 17.5-18 43 18 43.5l165 216-165 216q-18 18-18 43t18 43 43.5 18 43.5-18l198-259q18-18 18-43t-18-43zM512 0q-1-3-3-11.5t-3-11.5l-3.5-10.5t-5-10.5-7.5-8-10.5-7-13.5-3.5-18-1.5q-24 0-46 25t-16 48l126 888q17 64 96 64 22 0 29.5-23.5t0.5-49.5zM303 146.5q-18-17.5-43.5-17.5t-43.5 17l-198 260q-18 18-18 43t18 43l198 259q18 18 43.5 18t43.5-18 18-43-18-43l-165-216 165-216q18-18 18-43.5t-18-43z" />
<glyph unicode="&#xe609;" d="M1024 704q-91 0-121-4 58 35 89 132-9-6-29.5-19t-33-20.5-31.5-15.5-36-11q-62 66-153 66-92 0-144.5-38.5t-52.5-121.5q0-4-1-27t-1-42.5 2-26.5q-134 7-237 53t-179 139q-32-55-32-96 0-57 16-94.5t56-64.5q-40-1-72-1 0-152 146-181-27-8-56-8-20 0-39 4 19-61 76.5-97.5t128.5-37.5q-23-23-54-37t-71-19.5-65-6.5-66-1q-4 0-29-1.5t-35-0.5q27-52 110.5-89t211.5-37q112 0 207.5 36.5t162 97.5 113.5 140 69 164 22 170q0 3 9.5 5.5t24.5 7.5 31.5 13.5 34 26.5 28.5 43z" />
<glyph unicode="&#xe60a;" d="M896-64h-768q-53 0-90.5 37.5t-37.5 90.5v768q0 53 37.5 90.5t90.5 37.5h768q53 0 90.5-37.5t37.5-90.5v-768q0-53-37.5-90.5t-90.5-37.5zM256 800q0 13-9.5 22.5t-22.5 9.5h-64q-13 0-22.5-9.5t-9.5-22.5v-64q0-13 9.5-22.5t22.5-9.5h64q13 0 22.5 9.5t9.5 22.5v64zM256 608q0 13-9.5 22.5t-22.5 9.5h-64q-13 0-22.5-9.5t-9.5-22.5v-512q0-13 9.5-22.5t22.5-9.5h64q13 0 22.5 9.5t9.5 22.5v512zM896 448q0 80-56 136t-136 56q-44 0-96.5-14t-95.5-39v21q0 13-9.5 22.5t-22.5 9.5h-64q-13 0-22.5-9.5t-9.5-22.5v-512q0-13 9.5-22.5t22.5-9.5h64q13 0 22.5 9.5t9.5 22.5v288q0 53 37.5 90.5t90.5 37.5 90.5-37.5 37.5-90.5v-288q0-13 9.5-22.5t22.5-9.5h64q13 0 22.5 9.5t9.5 22.5v352z" />
<glyph unicode="&#xe60b;" d="M1032 288q0-70-14.5-115.5t-45.5-68.5-68.5-31.5-95.5-8.5-95.5 8.5-68.5 31.5-45.5 68.5-14.5 115.5q0 26-18.5 45t-45 19-45.5-19-19-45q0-70-14.5-115.5t-45.5-68.5-68.5-31.5-95.5-8.5-95.5 8.5-68.5 31.5-45.5 68.5-14.5 115.5q0 57 8 89-16 28-1 55l217 342q11 19 31.5 24.5t39-5.5 24-32.5-5.5-40.5l-156-245q42 5 99 5 75 0 114.5-11t56.5-37q51-16 85-16t85 16q17 26 56.5 37t114.5 11q57 0 99-5l-156 245q-11 19-5.5 40.5t24 32.5 39 5.5 31.5-24.5l217-342q15-27-1-55 8-32 8-89zM255 416q-60 0-96-6.5t-55.5-24-25.5-40-6-62.5q0-49 10.5-80t32.5-47.5 49-22 68-5.5 68 5.5 49.5 22 32.5 47.5 10 80v28t-1 23.5-2.5 21-5 16.5-8.5 14.5-12.5 11-17.5 8.5-23 5-29.5 4-37.5 1zM785 416q-21 0-37-1t-29.5-4-23.5-5-17.5-8.5-12.5-11-8.5-15-5-16.5-2.5-20.5-1-23.5v-28q0-49 10.5-80t32.5-47.5 49-22 68-5.5 68 5.5 49.5 22 32.5 47.5 10 80q0 40-6 62.5t-25.5 40-55.5 24-96 6.5zM776 288q-30 0-47 9t-17 23 17 23 47 9q96 0 96-32t-96-32zM200 288q-30 0-47 9t-17 23 17 23 47 9q96 0 96-32t-96-32z" />
<glyph unicode="&#xe60c;" d="M1024 448q0-111-26-187t-86-128.5-158-76.5-242-24-242 24-158 76.5-86 128.5-26 187q0 149 78 231-14 102-14 153 0 13 9.5 22.5t22.5 9.5q12 0 84-33t98-52q98 21 234 21 118 0 209-16 31 20 97.5 50t77.5 30q13 0 22.5-9.5t9.5-22.5q0-35-10-127 106-83 106-257zM512 608q-20 0-58 1-46 2-88-0.5t-78.5-7.5-66-22-50-44-32-73-11.5-110q0-122 97.5-189t286.5-67 286.5 67 97.5 189q0 64-11.5 110t-32 73-50 44-66 22-78.5 7.5-88 0.5q-38-1-58-1zM704 288q-27 0-45.5 28t-18.5 68 19 68 45 28 45-28 19-68-18.5-68-45.5-28zM544 160h-64q-13 0-22.5 9.5t-9.5 22.5 9.5 22.5 22.5 9.5h64q13 0 22.5-9.5t9.5-22.5-9.5-22.5-22.5-9.5zM320.5 288q-26.5 0-45.5 28t-19 68 19 68 45.5 28 45-28 18.5-68-18.5-68-45-28z" />
<glyph unicode="&#xe60d;" d="M702 899l-124-143 121-570q6-16 8-22.5t0.5-14.5-8.5-15l-156-187q-10-11-25.5-11t-26.5 11l-155 187q-10 13-9.5 21.5t9.5 30.5l121 571-123 142q-13 12-6.5 36.5t28.5 24.5h325q22 0 27.5-24.5t-6.5-36.5z" />
<glyph unicode="&#xe60e;" d="M896-64h-258q2 13 2 25 0 85-19.5 170.5t-54.5 127.5q130 11 198 76.5t68 169.5q0 91-64 140v91q0 10-11 21t-21 11q-12 0-119-70-47 6-105 6t-105-6q-107 70-119 70-10 0-21-11t-11-21q0-9-2-44t-3-51q-59-49-59-136 0-104 68-169.5t198-76.5q-5-7-14-21-43-46-124-46-16 0-32 13t-31.5 32-32.5 38-42 32-54 13q0-8 10-20.5t26.5-33 27.5-42.5q26-51 54-73.5t74-22.5q48 0 87 14-23-88-23-181 0-12 2-25h-258q-53 0-90.5 37.5t-37.5 90.5v768q0 53 37.5 90.5t90.5 37.5h768q53 0 90.5-37.5t37.5-90.5v-768q0-53-37.5-90.5t-90.5-37.5z" />
<glyph unicode="&#xe60f;" d="M639-48q0 1 0.5 3.5t0.5 4.5q0 85-19.5 171t-54.5 127q130 11 198 76.5t68 169.5q0 91-64 140v91q0 11-11 21.5t-21 10.5q-12 0-119-70-47 6-105 6-57 0-105-6-107 70-119 70-10 0-21-11t-11-21q0-9-2-44t-3-51q-59-48-59-136 0-104 68-169.5t198-76.5q-5-7-14-20-43-47-124-47-16 0-32 13.5t-31.5 32-32.5 37.5-42 32-54 13q0-8 9.5-20t26.5-33 28-43q26-50 54-73t74-23q48 0 87 14-23-88-23-181v-4t1-4q-168 43-276.5 180.5t-108.5 314.5q0 105 40.5 199.5t109 163 163.5 109 199 40.5 199-40.5 163.5-109 109-163 40.5-199.5q0-177-108.5-314.5t-276.5-180.5z" />
<glyph unicode="&#xe610;" d="M512-64q-104 0-199 40.5t-163.5 109-109 163.5-40.5 199 40.5 199 109 163.5 163.5 109 199 40.5 199-40.5 163.5-109 109-163.5 40.5-199-40.5-199-109-163.5-163.5-109-199-40.5zM813 704q-6-3-18-11l-19.5-13t-18.5-10-21-7q-37 41-91 41-117 0-117-98v-59q-161 8-247 118-25-26-25-57 0-66 49-100-6 0-17-1t-17.5 0-14.5 5q0-46 24.5-76.5t67.5-39.5q-10-12-28-12-16 0-28 9 0-39 37.5-60.5t84.5-22.5q-18-27-52.5-40.5t-73.5-13.5q-14 0-38.5 7t-25.5 7q16-32 65.5-55t125.5-23q67 0 125 23.5t99 62.5 70.5 89 44 103.5 14.5 105.5q0 2 12 8.5t28 17.5 24 23q-54 0-72-2 35 21 53 81z" />
<glyph unicode="&#xe611;" d="M928 128h-32v-192l-192 192h-416q-53 0-82 46l146 146h384q66 0 113 47t47 113v224h32q40 0 68-28t28-68v-384q0-40-28-68t-68-28zM736 384h-416l-192-192v192h-32q-40 0-68 28t-28 68v384q0 40 28 68t68 28h640q40 0 68-28t28-68v-384q0-40-28-68t-68-28z" />
<glyph unicode="&#xe612;" d="M895-64h-767q-27 0-45.5 18.5t-18.5 45.5v895q0 27 18.5 45.5t45.5 18.5h448v-352q0-13 9-22.5t23-9.5h351v-1-574q0-27-18.5-45.5t-45.5-18.5zM436 376q12 12 12 30t-12 30.5-29 12.5-29-13l-175-149q-12-13-12-30.5t12-30.5l175-149q12-13 29-13t29 12.5 12 30.5-12 30l-146 119zM820 287l-174 149q-12 13-29 13t-29-12.5-12-30.5 12-30l145-120-145-119q-12-12-12-30t12-30.5 29-12.5 29 13l174 149q13 13 13 30.5t-13 30.5zM640 960q26 0 44-18l256-257q19-19 19-46h-319v321z" />
<glyph unicode="&#xe613;" d="M1006 405l-262-323q-18-18-43.5-18t-43.5 18-18 43 18 43l227 280-227 280q-18 18-18 43.5t18 43.5 43.5 18 43.5-18l262-323q18-18 18-43.5t-18-43.5zM367 82q-18-18-43.5-18t-43.5 18l-262 323q-18 18-18 43.5t18 43.5l262 323q18 18 43.5 18t43.5-18 18-43.5-18-43.5l-227-280 227-280q18-18 18-43t-18-43z" />
<glyph unicode="&#xe614;" d="M896-64h-768q-53 0-90.5 37.5t-37.5 90.5v768q0 53 37.5 90.5t90.5 37.5h768q53 0 90.5-37.5t37.5-90.5v-768q0-53-37.5-90.5t-90.5-37.5zM512 768q-87 0-160.5-38.5t-116.5-105-43-144.5q0-59 25.5-112.5t70.5-93.5q-3-37-12.5-80t-19.5-66h1q34 0 80.5 21.5t76.5 56.5q48-14 98-14 87 0 160.5 38.5t116.5 105 43 144.5-43 144.5-116.5 105-160.5 38.5z" />
<glyph unicode="&#xe615;" d="M512-64v194q-106 8-194 65t-139 149-51 200q0 113 55.5 209t151.5 151.5 209 55.5 209-55.5 151.5-151.5 55.5-209q0-67-15.5-130.5t-41.5-114.5-59.5-97.5-70.5-82.5-74-66.5-71-51.5-59.5-36-41.5-22zM512 666q0 16-11 27t-26 11h-118q-15 0-26-11t-11-27v-122q0-32 32-32h96q0-64-64-64v-64q51 0 89.5 34t38.5 88v160zM768 666q0 16-11 27t-26 11h-118q-15 0-26-11t-11-27v-122q0-32 32-32h96q0-64-64-64v-64q51 0 89.5 34t38.5 88v160z" />
<glyph unicode="&#xe616;" d="M736 320q-93 0-158.5 65.5t-65.5 158.5 65.5 158.5 158.5 65.5 158.5-65.5 65.5-158.5-65.5-158.5-158.5-65.5zM544 768q-13 0-22.5 9.5t-9.5 22.5 9.5 22.5 22.5 9.5 22.5-9.5 9.5-22.5-9.5-22.5-22.5-9.5zM320-64q-80 0-136 56t-56 136 56 136 136 56 136-56 56-136-56-136-136-56zM416 832q-13 0-22.5 9.5t-9.5 22.5 9.5 22.5 22.5 9.5 22.5-9.5 9.5-22.5-9.5-22.5-22.5-9.5zM256 352q0-13-9.5-22.5t-22.5-9.5-22.5 9.5-9.5 22.5 9.5 22.5 22.5 9.5 22.5-9.5 9.5-22.5zM192 704q-53 0-90.5 37.5t-37.5 90.5 37.5 90.5 90.5 37.5 90.5-37.5 37.5-90.5-37.5-90.5-90.5-37.5zM160 512q13 0 22.5-9.5t9.5-22.5-9.5-22.5-22.5-9.5-22.5 9.5-9.5 22.5 9.5 22.5 22.5 9.5zM160 640q13 0 22.5-9.5t9.5-22.5-9.5-22.5-22.5-9.5-22.5 9.5-9.5 22.5 9.5 22.5 22.5 9.5zM608 192q13 0 22.5-9.5t9.5-22.5-9.5-22.5-22.5-9.5-22.5 9.5-9.5 22.5 9.5 22.5 22.5 9.5zM736 256q13 0 22.5-9.5t9.5-22.5-9.5-22.5-22.5-9.5-22.5 9.5-9.5 22.5 9.5 22.5 22.5 9.5z" />
<glyph unicode="&#xe617;" d="M896-64h-768q-53 0-90.5 37.5t-37.5 90.5v768q0 53 37.5 90.5t90.5 37.5h768q53 0 90.5-37.5t37.5-90.5v-768q0-53-37.5-90.5t-90.5-37.5zM490 498l-187 188q-19 20-46.5 20t-47-19.5-19.5-47 20-46.5l141-143-141-142q-20-20-20-47.5t19.5-46.5 47-19 46.5 19l187 188q18 17 19 42t-14 44q2 3-5 10zM768 321h-192q-26 0-45-19t-19-45.5 19-45.5 45-19h192q27 0 45.5 19t18.5 45.5-18.5 45.5-45.5 19z" />
<glyph unicode="&#xe618;" d="M960 384h-512q-27 0-45.5 19t-18.5 45.5 18.5 45 45.5 18.5h512q27 0 45.5-18.5t18.5-45-18.5-45.5-45.5-19zM960 768h-512q-27 0-45.5 19t-18.5 45.5 18.5 45 45.5 18.5h512q27 0 45.5-18.5t18.5-45-18.5-45.5-45.5-19zM128-64q-53 0-90.5 37.5t-37.5 90.5 37.5 90.5 90.5 37.5 90.5-37.5 37.5-90.5-37.5-90.5-90.5-37.5zM128 320q-53 0-90.5 37.5t-37.5 90.5 37.5 90.5 90.5 37.5 90.5-37.5 37.5-90.5-37.5-90.5-90.5-37.5zM128 704q-53 0-90.5 37.5t-37.5 90.5 37.5 90.5 90.5 37.5 90.5-37.5 37.5-90.5-37.5-90.5-90.5-37.5zM448 128h512q27 0 45.5-18.5t18.5-45.5-18.5-45.5-45.5-18.5h-512q-27 0-45.5 18.5t-18.5 45.5 18.5 45.5 45.5 18.5z" />
<glyph unicode="&#xe619;" d="M904 320h-336q-50 0-85 37.5t-35 90.5 35 90.5 85 37.5h336q50 0 85-37.5t35-90.5-35-90.5-85-37.5zM904 704h-656q-50 0-85 37.5t-35 90.5 35 90.5 85 37.5h656q50 0 85-37.5t35-90.5-35-90.5-85-37.5zM192 634v-122h160q13 0 22.5-9.5t9.5-22.5v-64q0-13-9.5-22.5t-22.5-9.5h-160v-121q-7-7-15.5-7t-15.5 7l-155 168q-6 7-6 17.5t6 17.5l155 168q7 7 15.5 7t15.5-7zM248 192h656q50 0 85-37.5t35-90.5-35-90.5-85-37.5h-656q-50 0-85 37.5t-35 90.5 35 90.5 85 37.5z" />
<glyph unicode="&#xe61a;" d="M512-64q-104 0-199 40.5t-163.5 109-109 163.5-40.5 199 40.5 199 109 163.5 163.5 109 199 40.5 199-40.5 163.5-109 109-163.5 40.5-199-40.5-199-109-163.5-163.5-109-199-40.5zM512 832q-104 0-192.5-51.5t-140-140-51.5-192.5 51.5-192.5 140-140 192.5-51.5 192.5 51.5 140 140 51.5 192.5-51.5 192.5-140 140-192.5 51.5zM624 209q-17-17-41-17t-41 17l-177 177q-18 5-28 15-19 19-16 47-3 29 16 48 10 10 27 14l178 178q17 17 41 17t41-17 17-41-17-41l-157-158 157-157q17-17 17-41t-17-41z" />
<glyph unicode="&#xe61b;" d="M512 383l-449 449h898zM7 99q-7 14-7 29v640q0 15 7 29l350-349zM473 331q6-5 15.5-8t16.5-3h7q26-1 39 11l71 72 339-339h-898l339 339zM1017 797q7-14 7-29v-640q0-15-7-29l-350 349z" />
<glyph unicode="&#xe61c;" d="M960 704v-704q0-26-18.5-45t-45-19-45.5 19-19 45v64h-64v-64q0-26-18.5-45t-45.5-19h-640q-27 0-45.5 19t-18.5 45v576q0 104 51.5 192.5t140 140 192.5 51.5 192.5-51.5 140-140 51.5-192.5v-384h64v704q0 27 19 45.5t45 18.5h64q27 0 45.5-18.5t18.5-45.5v-128q0-26-18.5-45t-45.5-19zM640 576q0 106-75 181t-181 75-181-75-75-181v-480q0-13 9.5-22.5t22.5-9.5h448q13 0 22.5 9.5t9.5 22.5v480zM512 192h-256q-26 0-45 19t-19 45.5 19 45 45 18.5h256q27 0 45.5-18.5t18.5-45-18.5-45.5-45.5-19z" />
<glyph unicode="&#xe61d;" d="M960 544q0-30 5-57t13-45.5 17-32 16.5-19.5 12.5-6q-74 0-138.5 19t-109.5 52q-37-7-72.5-7t-71.5 7l-2-4t-1-3h5.5 5.5q87 0 160.5-30t116.5-81.5 43-112.5-43-112.5-116.5-81.5-160.5-30q-36 0-73 6-45-33-109.5-51.5t-137.5-18.5q9 0 23 16t27 54 14 84q-64 60-64 134 0 14 4 32h-2-2q-35 0-72 7-45-33-109.5-52t-138.5-19q5 0 12.5 6t16.5 19.5 17 32 13 45.5 5 57q0 1 0.5 3t0.5 3q-65 69-65 154 0 69 43 128t116.5 93.5 160.5 34.5q36 0 72-7 25 86 112 142.5t200 56.5q87 0 160.5-34.5t116.5-93.5 43-128q0-85-65-154 0-1 0.5-3t0.5-3z" />
<glyph unicode="&#xe61e;" d="M959.5 384q-26.5 0-45-37.5t-18.5-90.5v-192q0-53-37.5-90.5t-90.5-37.5h-64q-27 0-45.5 19t-18.5 45.5 19 45 45 18.5h32q13 0 22.5 9.5t9.5 22.5v224q0 53 37.5 90.5t90.5 37.5q-53 0-90.5 37.5t-37.5 90.5v224q0 13-9.5 22.5t-22.5 9.5h-32q-27 0-45.5 19t-18.5 45.5 19 45 45 18.5h64q53 0 90.5-37.5t37.5-90.5v-192q0-53 19-90.5t45-37.5 45-19 19-45-19-45-45.5-19zM256 320v-224q0-13 9.5-22.5t22.5-9.5h32q27 0 45.5-18.5t18.5-45-18.5-45.5-45.5-19h-64q-53 0-90.5 37.5t-37.5 90.5v192q0 53-18.5 90.5t-45 37.5-45.5 19-19 45 19 45 45.5 19 45 37.5 18.5 90.5v192q0 53 37.5 90.5t90.5 37.5h64q27 0 45.5-18.5t18.5-45.5-18.5-45.5-45.5-18.5h-32q-13 0-22.5-9.5t-9.5-22.5v-224q0-53-37.5-90.5t-90.5-37.5q53 0 90.5-37.5t37.5-90.5z" />
<glyph unicode="&#xe61f;" d="M960-64h-128q-26 0-45 19t-19 45v128q0 26 19 45t45 19h128q26 0 45-19t19-45v-128q0-27-18.5-45.5t-45.5-18.5zM960 320h-128q-26 0-45 18.5t-19 45.5v128q0 27 19 45.5t45 18.5h128q26 0 45-18.5t19-45.5v-128q0-27-18.5-45.5t-45.5-18.5zM960 704h-128q-26 0-45 19t-19 45v128q0 27 19 45.5t45 18.5h128q26 0 45-18.5t19-45.5v-128q0-26-18.5-45t-45.5-19zM576-64h-128q-27 0-45.5 19t-18.5 45v128q0 26 19 45t45 19h128q27 0 45.5-19t18.5-45v-128q0-27-18.5-45.5t-45.5-18.5zM576 320h-128q-27 0-45.5 18.5t-18.5 45.5v128q0 27 19 45.5t45 18.5h128q27 0 45.5-18.5t18.5-45.5v-128q0-27-18.5-45.5t-45.5-18.5zM576 704h-128q-27 0-45.5 19t-18.5 45v128q0 27 19 45.5t45 18.5h128q27 0 45.5-18.5t18.5-45.5v-128q0-26-18.5-45t-45.5-19zM192-64h-128q-26 0-45 19t-19 45v128q0 26 19 45t45 19h128q26 0 45-19t19-45v-128q0-27-18.5-45.5t-45.5-18.5zM192 320h-128q-26 0-45 18.5t-19 45.5v128q0 27 19 45.5t45 18.5h128q26 0 45-18.5t19-45.5v-128q0-27-18.5-45.5t-45.5-18.5zM192 704h-128q-26 0-45 19t-19 45v128q0 27 19 45.5t45 18.5h128q26 0 45-18.5t19-45.5v-128q0-26-18.5-45t-45.5-19z" />
<glyph unicode="&#xe620;" d="M938.858 597.333h63.786c5.546 0 11.094 2.134 15.36 6.186 8.32 8.32 8.32 21.974 0 30.294-5.782 5.546-77.226 91.52-77.226 91.52s71.466 85.974 77.226 91.52c8.32 8.32 8.32 21.974 0 30.294-4.266 4.052-9.812 6.186-15.358 6.186h-102.634c-46.698 76.8-131.414 128-227.84 128-147.2 0-266.666-119.466-266.666-266.666 0-88.32-71.68-160-160-160h-0.64-202.434c-23.488 0-42.666-19.2-42.666-42.666l0.214-5.76c18.986-185.6 148.886-339.2 320.214-396.586v-98.986c0-29.44 23.894-53.334 53.334-53.334s53.334 23.894 53.334 53.334v76.586c14.080-1.28 28.374-1.92 42.666-1.92s28.586 0.64 42.666 1.92v-76.586c0-29.44 23.894-53.334 53.334-53.334s53.334 23.894 53.334 53.334v98.986c186.026 62.314 320 238.080 320 445.014l-0.004 42.664zM682.858 799.999c0 29.44 23.894 53.334 53.334 53.334s53.334-23.894 53.334-53.334-23.894-53.334-53.334-53.334-53.334 23.894-53.334 53.334zM517.312 485.119c30.080-65.302 18.326-145.088-35.414-198.826-52.906-53.12-131.414-65.302-196.054-36.48l-6.826 3.626c-13.654 7.254-22.806 21.546-22.806 37.974 0 12.586 5.334 23.894 13.866 31.786 4.246 3.84 176.426 176.214 176.426 176.214 16.854 16.854 44.16 16.854 60.8 0 2.56-2.56 4.906-5.334 6.634-8.32l3.374-5.974z" />
</font>
</defs>
</svg>
